<?xml version="1.0" encoding="UTF-8"?>
<!DOCTYPE svg PUBLIC "-//W3C//DTD SVG 1.1//EN" "http://www.w3.org/Graphics/SVG/1.1/DTD/svg11.dtd">
<!-- Creator: CorelDRAW X7 -->
<svg xmlns="http://www.w3.org/2000/svg" xml:space="preserve" width="122px" height="122px" version="1.1" style="shape-rendering:geometricPrecision; text-rendering:geometricPrecision; image-rendering:optimizeQuality; fill-rule:evenodd; clip-rule:evenodd"
viewBox="0 0 16 16"
 xmlns:xlink="http://www.w3.org/1999/xlink">
 <defs>
  <style type="text/css">
   <![CDATA[
    .fil1 {fill:#2B2A29;fill-rule:nonzero}
    .fil0 {fill:#2B2A29;fill-rule:nonzero}
   ]]>
  </style>
 </defs>
 <g id="Слой_x0020_1">
  <metadata id="CorelCorpID_0Corel-Layer"/>
  <path class="fil0" d="M9 12l-1 0c0,0 0,0 0,0l0 -6c0,0 0,0 -1,0 0,0 0,0 0,0 0,1 0,1 -1,1 0,0 0,0 0,0 0,0 0,0 0,0 0,0 0,0 0,0l0 -1c0,0 0,0 0,0 0,0 0,-1 0,-1 1,0 1,0 1,0 0,0 1,-1 1,-1 0,0 0,0 0,0 0,0 0,0 0,0l1 0c0,0 0,0 0,0l0 8c0,0 0,0 0,0zm-1 0l1 0 0 -8 -1 0c0,0 0,0 0,0 0,1 0,1 -1,1 0,0 0,0 0,1 -1,0 -1,0 -1,0l0 1c0,0 0,0 0,0 0,-1 1,-1 1,-1 0,0 0,0 0,0 0,0 1,0 1,0 0,0 0,-1 0,-1 0,0 0,1 0,1l0 6z"/>
  <path class="fil1" d="M8 0c2,0 4,1 6,2 1,2 2,4 2,6 0,2 -1,4 -2,6 -2,1 -4,2 -6,2 -2,0 -4,-1 -6,-2 -1,-2 -2,-4 -2,-6 0,-2 1,-4 2,-6 2,-1 4,-2 6,-2zm6 3c-2,-2 -4,-3 -6,-3 -2,0 -4,1 -5,3 -2,1 -3,3 -3,5 0,2 1,4 3,6 1,1 3,2 5,2 2,0 4,-1 6,-2 1,-2 2,-4 2,-6 0,-2 -1,-4 -2,-5z"/>
 </g>
</svg>
