<?xml version="1.0" encoding="UTF-8"?>
<!DOCTYPE svg PUBLIC "-//W3C//DTD SVG 1.1//EN" "http://www.w3.org/Graphics/SVG/1.1/DTD/svg11.dtd">
<!-- Creator: CorelDRAW X7 -->
<svg xmlns="http://www.w3.org/2000/svg" xml:space="preserve" width="122px" height="122px" version="1.1" style="shape-rendering:geometricPrecision; text-rendering:geometricPrecision; image-rendering:optimizeQuality; fill-rule:evenodd; clip-rule:evenodd"
viewBox="0 0 8 8"
 xmlns:xlink="http://www.w3.org/1999/xlink">
 <defs>
  <style type="text/css">
   <![CDATA[
    .str0 {stroke:#2B2A29;stroke-width:0.136216}
    .str1 {stroke:#2B2A29;stroke-width:0.136139;stroke-linecap:round;stroke-linejoin:round}
    .fil0 {fill:none}
    .fil1 {fill:none;fill-rule:nonzero}
    .fil2 {fill:#2B2A29;fill-rule:nonzero}
   ]]>
  </style>
 </defs>
 <g id="Слой_x0020_1">
  <metadata id="CorelCorpID_0Corel-Layer"/>
  <circle class="fil0 str0" cx="4" cy="4" r="4"/>
  <polygon class="fil1 str1" points="4,5 4,3 3,5 "/>
  <path class="fil2" d="M4 6l0 -1 -2 0c0,0 0,0 0,0l0 0c0,0 0,0 0,0l2 -3c0,0 0,0 0,0l1 0c0,0 0,0 0,0l0 3 0 0c0,0 0,0 0,0l0 0c0,0 0,0 0,0l0 0 0 1c0,0 0,0 0,0l-1 0c0,0 0,0 0,0zm0 -1l0 1 1 0 0 -1c0,0 0,0 0,0l0 0 0 0 0 0c0,0 0,0 0,0l0 -3 -1 0 -2 3 0 0 2 0c0,0 0,0 0,0z"/>
 </g>
</svg>
