<?xml version="1.0" encoding="UTF-8"?>
<!DOCTYPE svg PUBLIC "-//W3C//DTD SVG 1.1//EN" "http://www.w3.org/Graphics/SVG/1.1/DTD/svg11.dtd">
<!-- Creator: CorelDRAW X7 -->
<svg xmlns="http://www.w3.org/2000/svg" xml:space="preserve" width="10.31mm" height="10.31mm" version="1.1" style="shape-rendering:geometricPrecision; text-rendering:geometricPrecision; image-rendering:optimizeQuality; fill-rule:evenodd; clip-rule:evenodd"
viewBox="0 0 544 544"
 xmlns:xlink="http://www.w3.org/1999/xlink">
 <defs>
  <style type="text/css">
   <![CDATA[
    .fil0 {fill:#FEFEFE;fill-rule:nonzero}
   ]]>
  </style>
 </defs>
 <g id="Слой_x0020_1">
  <metadata id="CorelCorpID_0Corel-Layer"/>
  <path class="fil0" d="M301 423l-35 0c-3,0 -5,-2 -5,-5l0 -217c-2,2 -5,4 -8,6 -5,4 -12,8 -19,12 -7,4 -14,8 -20,11 -7,3 -13,6 -18,8 -3,1 -5,0 -6,-3 -1,0 -1,-1 -1,-1l0 -35c0,-2 2,-4 3,-4 10,-5 19,-10 28,-15 8,-6 16,-12 23,-19 8,-6 14,-13 19,-19 5,-6 9,-12 12,-18 1,-2 3,-3 4,-3l23 0c3,0 5,2 5,5l0 292c0,3 -2,5 -5,5zm-29 -423c75,0 143,30 192,80 50,49 80,117 80,192 0,75 -30,143 -80,192 -49,50 -117,80 -192,80 -75,0 -143,-30 -192,-80 -50,-49 -80,-117 -80,-192 0,-75 30,-143 80,-192 49,-50 117,-80 192,-80zm186 86c-48,-47 -113,-77 -186,-77 -72,0 -138,30 -186,77 -47,48 -77,114 -77,186 0,73 30,138 77,186 48,47 114,77 186,77 73,0 138,-30 186,-77 47,-48 77,-113 77,-186 0,-72 -30,-138 -77,-186zm-188 328l27 0 0 -283 -16 0c-3,5 -7,11 -12,17 -5,7 -12,14 -19,20 -8,7 -16,14 -25,19 -8,6 -17,10 -26,15l0 25c3,-2 7,-3 11,-5 6,-3 12,-7 19,-11 7,-4 13,-8 19,-12 5,-4 10,-8 14,-12 1,-1 2,-1 4,-1 2,0 4,2 4,4l0 224z"/>
 </g>
</svg>
