<?xml version="1.0" encoding="UTF-8"?>
<!DOCTYPE svg PUBLIC "-//W3C//DTD SVG 1.1//EN" "http://www.w3.org/Graphics/SVG/1.1/DTD/svg11.dtd">
<!-- Creator: CorelDRAW X7 -->
<svg xmlns="http://www.w3.org/2000/svg" xml:space="preserve" width="10.31mm" height="10.31mm" version="1.1" style="shape-rendering:geometricPrecision; text-rendering:geometricPrecision; image-rendering:optimizeQuality; fill-rule:evenodd; clip-rule:evenodd"
viewBox="0 0 634 634"
 xmlns:xlink="http://www.w3.org/1999/xlink">
 <defs>
  <style type="text/css">
   <![CDATA[
    .fil0 {fill:#FEFEFE;fill-rule:nonzero}
   ]]>
  </style>
 </defs>
 <g id="Слой_x0020_1">
  <metadata id="CorelCorpID_0Corel-Layer"/>
  <path class="fil0" d="M317 0c87,0 166,35 224,93 57,57 93,136 93,224 0,87 -36,166 -93,224 -58,57 -137,93 -224,93 -88,0 -167,-36 -224,-93 -58,-58 -93,-137 -93,-224 0,-88 35,-167 93,-224 57,-58 136,-93 224,-93zm117 438l0 39c0,3 -2,6 -5,6l-224 0c-3,0 -6,-3 -6,-6l0 0c0,-5 0,-10 1,-15 1,-5 3,-11 4,-15l1 -1c3,-8 6,-15 11,-23 5,-8 11,-15 17,-23 13,-15 31,-32 55,-52l0 0c19,-15 34,-28 46,-40 12,-12 22,-22 28,-31l0 0c6,-8 11,-16 14,-24 3,-8 4,-15 4,-23 0,-7 -1,-14 -4,-20 -2,-7 -6,-12 -12,-17l0 -1c-5,-5 -11,-8 -18,-11 -7,-3 -15,-4 -24,-4 -10,0 -18,2 -25,4 -8,3 -14,7 -20,13l0 0c-5,5 -9,11 -12,19 -3,8 -4,16 -4,26 0,3 -3,6 -6,6l-43 -4c-3,-1 -5,-3 -5,-6l0 -1c2,-16 5,-31 11,-43 6,-13 14,-24 24,-33 10,-9 22,-15 36,-20 13,-4 28,-6 45,-6 17,0 32,2 45,7 14,5 26,12 36,21 10,10 17,21 22,32 5,12 8,25 8,39 0,7 -1,15 -2,22 -2,7 -4,14 -7,20 -3,7 -7,14 -11,22 -5,7 -11,14 -17,21 -7,8 -16,17 -27,27 -11,10 -23,21 -38,34 -13,10 -23,19 -31,26 -8,7 -13,12 -17,16 -3,3 -6,7 -9,11l-2 2 156 0c3,0 5,3 5,6zm-10 34l0 -29 -161 0c-1,0 -2,0 -3,-1 -3,-1 -4,-5 -2,-7 2,-4 5,-8 8,-12 3,-4 7,-8 10,-12 4,-3 10,-9 18,-16 8,-8 19,-16 31,-27 15,-12 27,-23 38,-33 11,-10 19,-19 25,-26 7,-7 12,-14 17,-20 4,-7 7,-13 10,-20 3,-6 5,-12 6,-19 1,-6 2,-12 2,-19 0,-12 -2,-24 -7,-34 -4,-11 -11,-20 -20,-29 -9,-8 -19,-15 -31,-19 -13,-4 -27,-6 -42,-6 -16,0 -30,2 -42,6 -12,4 -23,9 -32,17 -9,8 -16,18 -21,29 -5,11 -8,22 -9,35l31 3c1,-8 2,-17 5,-24 3,-9 8,-17 15,-23l0 0c6,-7 14,-12 23,-15 8,-3 18,-5 29,-5 10,0 19,2 28,5 8,3 15,8 22,14l0 0c6,6 11,13 14,21 4,7 5,15 5,24 0,9 -1,18 -5,27 -3,8 -9,17 -15,27l0 0c-7,9 -17,19 -29,32 -13,12 -28,25 -47,40l0 1c-23,19 -41,35 -54,50 -6,7 -11,14 -16,22 -4,7 -8,14 -10,21l0 0c-2,5 -3,9 -4,14 -1,2 -1,5 -1,8l214 0zm109 -372c-55,-55 -132,-89 -216,-89 -85,0 -161,34 -217,89 -55,56 -89,132 -89,217 0,84 34,161 89,216 56,55 132,90 217,90 84,0 161,-35 216,-90 55,-55 90,-132 90,-216 0,-85 -35,-161 -90,-217z"/>
 </g>
</svg>
