<?xml version="1.0" encoding="UTF-8"?>
<!DOCTYPE svg PUBLIC "-//W3C//DTD SVG 1.1//EN" "http://www.w3.org/Graphics/SVG/1.1/DTD/svg11.dtd">
<!-- Creator: CorelDRAW X7 -->
<svg xmlns="http://www.w3.org/2000/svg" xml:space="preserve" width="10.31mm" height="10.31mm" version="1.1" style="shape-rendering:geometricPrecision; text-rendering:geometricPrecision; image-rendering:optimizeQuality; fill-rule:evenodd; clip-rule:evenodd"
viewBox="0 0 750 750"
 xmlns:xlink="http://www.w3.org/1999/xlink">
 <defs>
  <style type="text/css">
   <![CDATA[
    .fil0 {fill:#FEFEFE;fill-rule:nonzero}
   ]]>
  </style>
 </defs>
 <g id="Слой_x0020_1">
  <metadata id="CorelCorpID_0Corel-Layer"/>
  <path class="fil0" d="M299 459c3,13 7,25 11,34 5,10 10,17 16,23 6,5 13,9 20,12 8,3 16,4 25,4 11,0 21,-1 30,-5 9,-4 18,-9 25,-17 7,-7 13,-16 16,-25 4,-9 6,-19 6,-30 0,-10 -2,-20 -5,-29l0 0c-4,-8 -9,-16 -16,-22 -6,-7 -14,-12 -22,-16 -9,-3 -19,-5 -29,-5 -5,0 -10,1 -15,2 -6,1 -12,2 -18,4l-1 0 0 0 0 0 0 0 0 0 0 0 0 0 0 0 -1 0 0 0 0 0 0 0 0 0 0 0 0 0 0 0 0 0 0 0 -1 0 0 0 0 0 0 0 0 0 0 0 0 0 0 0 0 0 0 0 0 0 0 0 0 0 -1 0 0 0 0 0 0 0 0 0 0 0 0 0 0 0 0 0 0 0 0 0 0 0 0 0 0 -1 -1 0 0 0 0 0 0 0 0 0 0 0 0 0 0 0 0 0 0 0 0 0 0 0 0 0 -1 0 0 0 0 0 0 0 0 0 0 0 0 0 0 0 0 0 0 -1 0 0 0 0 0 0 0 0 -1 0 0 0 0 0 0 0 0 0 0 0 0 0 0 0 0 0 0 0 0 0 0 0 0 -1 0 0 0 0 0 0 0 0 0 0 -1 0 0 0 0 0 0 0 0 0 0 0 0 0 0 0 0 -1 0 0 0 0 0 0 0 0 0 0 0 0 0 -1 0 0 0 0 0 0 0 0 0 0 0 0 0 0 0 0 0 0 -1 -1 0 0 0 0 0 0 0 0 0 0 0 0 0 0 0 0 0 0 0 0 0 -1 0 0 0 0 0 0 0 0 0 0 0 0 0 0 0 0 0 0 0 -1 6 -42 0 0 0 0c0,-1 0,-2 1,-3l0 0c0,0 0,0 0,-1l0 0c2,-1 4,-2 6,-2l4 0 3 1c10,0 20,-2 28,-4 9,-3 18,-7 26,-12l0 0c7,-5 13,-11 16,-18 4,-8 6,-17 6,-27 0,-8 -2,-16 -4,-22 -3,-7 -7,-13 -13,-18 -5,-5 -11,-9 -18,-12 -7,-3 -16,-4 -24,-4 -9,0 -17,1 -25,4 -7,3 -13,7 -19,12 -6,6 -11,13 -14,21 -4,9 -7,19 -9,30 0,4 -3,6 -7,6l-1 0 -48 -9 0 0 0 0 -1 0 0 0 0 0 0 0 0 0 0 0 0 0 0 0 0 0 0 -1 0 0 0 0 0 0 -1 0 0 0 0 0 0 0 0 0 0 0 0 0 0 0 0 0 0 0 0 0 -1 0 0 0 0 0 0 0 0 0 0 0 0 0 0 0 0 0 0 0 0 -1 0 0 0 0 0 0 0 0 0 0 -1 0 0 0 0 0 0 0 0 0 0 0 0 0 0 0 0 0 0 0 0 -1 0 0 0 0 0 0 -1 0 0 0 0 0 0 0 0 0 0 0 0 0 0 0 0 0 0 0 0 -1 0 0 0 0 0 0 0 0 0 0 0 0 0 0 0 0 0 0 0 0 0 0 0 0 0 -1 0 0 0 0 0 0 -1 0 0 0 0 0 0 0 0 0 0 0 0 -1 0 0 0 0 0 0 0 0 0 0 0 0 0 0 0 0 0 0 0 0 0 0 0 -1 0 0 0 0 0 0 0 0 0 0 0 -1 0 0 0 0 0 0 0 0c7,-34 21,-61 43,-80 22,-19 50,-29 84,-29 33,0 66,11 89,32 21,19 35,45 35,78 0,20 -5,37 -15,52 -8,11 -18,20 -30,28 7,2 13,5 18,8 10,6 19,14 26,23 7,10 12,20 16,32 3,11 5,23 5,37 0,18 -4,35 -10,51 -7,16 -17,30 -31,43 -13,13 -28,22 -45,29 -17,6 -36,9 -56,9 -18,0 -35,-3 -50,-8 -16,-6 -30,-14 -42,-25 -12,-11 -22,-24 -29,-38 -7,-14 -11,-30 -13,-47l0 -1 0 0 0 0 0 0 0 0 0 0 0 0 0 -1 0 0 0 0 0 0 0 -1 0 0 0 0 0 0 1 0 0 0 0 -1 0 0 0 0 0 0 0 0 0 0 0 0 0 0 0 0 0 0 0 0 0 0 0 0 0 0 0 -1 0 0 0 0 0 0 0 0 0 0 0 0 0 0 0 0 0 0 1 -1 0 0 0 0 0 0 0 0 0 0 0 0 0 0 0 0 0 0 0 0 0 0 1 0 0 0 0 -1 0 0 0 0 0 0 0 0 0 0 0 0 0 0 0 0 0 0 0 0 0 0 1 0 0 0 0 0 0 0 0 0 0 0 0 0 0 0 0 0 0 0 0 0 0 0 0 0 0 -1 1 0 0 0 0 0 0 0 0 0 0 0 1 0 0 0 0 0 0 0 49 -7c4,0 7,2 7,6zm76 -459c103,0 197,42 265,110 68,68 110,161 110,265 0,103 -42,197 -110,265 -68,68 -162,110 -265,110 -104,0 -197,-42 -265,-110 -68,-68 -110,-162 -110,-265 0,-104 42,-197 110,-265 68,-68 161,-110 265,-110zm256 119c-66,-66 -156,-106 -256,-106 -100,0 -191,40 -256,106 -66,65 -106,156 -106,256 0,100 40,190 106,256 65,66 156,106 256,106 100,0 190,-40 256,-106 66,-66 106,-156 106,-256 0,-100 -40,-191 -106,-256zm-380 353c2,14 5,26 11,37 6,13 15,24 26,34 11,10 23,18 37,23 14,5 29,7 46,7 19,0 36,-3 51,-8 16,-6 29,-15 42,-26 12,-12 21,-25 27,-39 6,-14 9,-29 9,-46 0,-12 -2,-24 -5,-34 -3,-10 -7,-19 -13,-27 -7,-8 -14,-14 -22,-20 -9,-5 -19,-9 -30,-11l0 -1 0 0 0 0 0 0 0 0 0 0 0 0 0 0 -1 0 0 0 0 0 0 0 0 0 0 0 0 0 0 0 0 0 0 0 0 0 0 0 -1 0 0 0 0 0 0 0 0 0 0 0 0 0 0 0 0 0 0 0 0 0 0 -1 0 0 0 0 0 0 -1 0 0 0 0 0 0 0 0 0 0 0 0 0 0 0 0 0 0 0 0 0 0 0 0 0 0 0 -1 -1 0 0 0 0 0 0 0 0 0 0 0 0 0 0 0 0 0 0 0 -1 0 0 0 0 0 0 0 0 0 0 0 0 0 0 0 0 0 0 0 0 -1 0 0 0 0 -1 0 0 0 0 0 0 0 0 0 0 0 0 0 0 0 0 0 0 0 0 0 0 0 0 0 0 0 -1 0 0 0 0 0 0 0 0 0 0 0 0 0 0 0 0 0 0 0 0 0 0 0 -1 0 0 0 0 0 0 0 0 0 0 0 0 0 0 0 0 0 0 0 0 0 0 0 0 0 -1 0 0 0 0 0 0 0 0 0 0 0 0 0 0 0 0 0 0 0 0 0 0 0 0 0 -1 0 0 0 0 0 0 0 0 0 0 0 0 0 0 1 0 0 0 0 0 0 0 0 -1 0 0 0 0 0 0 0 0 0 0 0 0 0 0 0 0 0 0 0 0 0 0 0 0 0 0 0 0 0 0 0 -1 0 0 0 0 0 0 0 0 1 0 0 0 0 0 0 0 0 0 0 0 0 0 0 0 0 0 0 0 0 0 0 -1 1 0 0 0 0 0 0 0 0 0 0 0 0 0 0 0 0 0 0 0 0 0 0 0 0 0 1 0 0 0 0 -1 0 0 0 0 0 0c16,-7 29,-18 38,-31 9,-12 13,-27 13,-44 0,-29 -12,-52 -31,-69 -21,-18 -50,-28 -80,-28 -31,0 -56,9 -75,25 -19,16 -32,39 -38,67l37 7c2,-10 4,-19 8,-27 4,-10 10,-18 17,-25 7,-7 15,-12 24,-15 9,-3 18,-5 29,-5 10,0 19,2 28,5 9,3 17,8 23,15 7,6 12,14 16,22 3,8 5,17 5,27 0,12 -3,23 -7,33 -5,9 -12,17 -21,23l0 0c-9,6 -19,10 -29,13 -10,3 -21,4 -32,4l-2 0 -4 28c4,-1 8,-1 11,-2 6,-1 12,-1 17,-1 12,0 23,2 33,6 10,4 19,10 27,17 8,8 14,17 18,27l1 1c4,10 6,21 6,33 0,13 -3,24 -7,35 -4,11 -11,21 -19,29 -9,9 -18,15 -29,20 -10,4 -22,6 -35,6 -10,0 -20,-1 -29,-5 -9,-3 -17,-8 -25,-15 -7,-7 -13,-15 -18,-26 -5,-9 -8,-20 -11,-32l-37 5z"/>
 </g>
</svg>
