<?xml version="1.0" encoding="UTF-8"?>
<!DOCTYPE svg PUBLIC "-//W3C//DTD SVG 1.1//EN" "http://www.w3.org/Graphics/SVG/1.1/DTD/svg11.dtd">
<!-- Creator: CorelDRAW X7 -->
<svg xmlns="http://www.w3.org/2000/svg" xml:space="preserve" width="10.31mm" height="10.31mm" version="1.1" style="shape-rendering:geometricPrecision; text-rendering:geometricPrecision; image-rendering:optimizeQuality; fill-rule:evenodd; clip-rule:evenodd"
viewBox="0 0 918 918"
 xmlns:xlink="http://www.w3.org/1999/xlink">
 <defs>
  <style type="text/css">
   <![CDATA[
    .fil0 {fill:#FEFEFE;fill-rule:nonzero}
   ]]>
  </style>
 </defs>
 <g id="Слой_x0020_1">
  <metadata id="CorelCorpID_0Corel-Layer"/>
  <path class="fil0" d="M459 0c127,0 241,51 324,134 84,83 135,198 135,325 0,127 -51,241 -135,324 -83,84 -197,135 -324,135 -127,0 -242,-51 -325,-135 -83,-83 -134,-197 -134,-324 0,-127 51,-242 134,-325 83,-83 198,-134 325,-134zm9 306c3,-3 8,-4 11,-2 2,2 4,4 4,7 1,73 0,147 0,221 0,4 -4,7 -8,7l-154 0c-2,0 -3,0 -5,-1 -3,-2 -4,-7 -2,-11l154 -221zm-1 398l0 -109 -206 0c-4,0 -7,-4 -7,-8l0 -55c0,-2 0,-4 1,-5l224 -318c2,-2 4,-3 7,-3l49 0c4,0 8,3 8,7l0 311 59 0c4,0 7,3 7,8l0 55c0,4 -3,8 -7,8l-59 0 0 109c0,5 -4,8 -8,8l-60 0c-5,0 -8,-3 -8,-8zm16 -117l0 110 44 0 0 -110c0,-4 4,-8 8,-8l59 0 0 -40 -59 0c-4,0 -8,-3 -8,-7l0 -311 -37 0 -221 313 0 45 206 0c4,0 8,4 8,8zm-16 -251l-131 188 131 0 0 -188zm305 -190c-80,-81 -191,-130 -313,-130 -122,0 -233,49 -313,130 -81,80 -130,191 -130,313 0,122 49,233 130,313 80,81 191,130 313,130 122,0 233,-49 313,-130 81,-80 130,-191 130,-313 0,-122 -49,-233 -130,-313z"/>
 </g>
</svg>
